<?xml version="1.0" encoding="UTF-8" standalone="no"?>
<svg width="16px" height="16px" viewBox="0 0 16 16" version="1.1" xmlns="http://www.w3.org/2000/svg" xmlns:xlink="http://www.w3.org/1999/xlink">
    <g id="Landing" stroke="none" stroke-width="1" fill="none" fill-rule="evenodd">
        <g id="landing.1440px" transform="translate(-1344.000000, -2438.000000)" fill="#BFBFBF">
            <g id="Group-3" transform="translate(80.000000, 2408.000000)">
                <g id="Group-12" transform="translate(1224.000000, 30.000000)">
                    <path d="M40.8758622,0 C40.3920395,0 40,0.392039535 40,0.875666095 L40,14.9910505 C40,15.4746771 40.3920395,15.8667166 40.8758622,15.8667166 L48.4750358,15.8667166 L48.4750358,9.72234513 L46.4071694,9.72234513 L46.4071694,7.32774647 L48.4750358,7.32774647 L48.4750358,5.56170544 C48.4750358,3.51227416 49.7266597,2.39636372 51.5548701,2.39636372 C52.4305362,2.39636372 53.1832364,2.46167096 53.4024961,2.4906964 L53.4024961,4.63249918 L52.1345944,4.63308753 C51.140277,4.63308753 50.9478854,5.10553538 50.9478854,5.79881189 L50.9478854,7.32774647 L53.31895,7.32774647 L53.0102605,9.72234513 L50.9478854,9.72234513 L50.9478854,15.8667166 L54.9910505,15.8667166 C55.4746771,15.8667166 55.8667166,15.4746771 55.8667166,14.9910505 L55.8667166,0.875666095 C55.8667166,0.392039535 55.4746771,0 54.9910505,0 L40.8758622,0 Z" id="Fill-1"></path>
                </g>
            </g>
        </g>
    </g>
</svg>
